# AST/ASF file generated using VICON BodyLanguage
# -----------------------------------------------
:version 1.10
:name VICON
:units
  mass 1.0
  length 0.45
  angle deg
:documentation
   .ast/.asf automatically generated from VICON data using
   VICON BodyBuilder and BodyLanguage model FoxedUp or BRILLIANT.MOD
:root
   order TX TY TZ RX RY RZ
   axis XYZ
   position 0 0 0  
   orientation 0 0 0 
:bonedata
  begin
     id 1 
     name lhipjoint
     direction 0.643272 -0.706573 0.294883 
     length 2.58915 
     axis 0 0 0  XYZ
  end
  begin
     id 2 
     name lfemur
     direction 0.34202 -0.939693 0  
     length 7.06802  
     axis 0 0 20  XYZ
    dof rx ry rz
    limits (-160.0 20.0)
           (-70.0 70.0)
           (-60.0 70.0)
  end
  begin
     id 3 
     name ltibia
     direction 0.34202 -0.939693 0   
     length 7.94147   
     axis 0 0 20   XYZ
    dof rx
    limits (-10.0 170.0)
  end
  begin
     id 4 
     name lfoot
     direction 0.0435058 -0.119531 0.991877   
     length 1.8399   
     axis -90 7.62852e-016 20   XYZ
    dof rx rz
    limits (-45.0 90.0)
           (-70.0 20.0)
  end
  begin
     id 5 
     name ltoes
     direction 1.53505e-011 -4.22157e-011 1   
     length 0.934412   
     axis -90 7.62852e-016 20   XYZ
    dof rx
    limits (-90.0 20.0)
  end
  begin
     id 6 
     name rhipjoint
     direction -0.636801 -0.711547 0.296959   
     length 2.57105  
     axis 0 0 0  XYZ 
  end
  begin
     id 7 
     name rfemur
     direction -0.34202 -0.939693 0   
     length 7.03285   
     axis 0 0 -20   XYZ
    dof rx ry rz
    limits (-160.0 20.0)
           (-70.0 70.0)
           (-70.0 60.0)
  end
  begin
     id 8 
     name rtibia
     direction -0.34202 -0.939693 0   
     length 7.99111   
     axis 0 0 -20   XYZ
    dof rx
    limits (-10.0 170.0)
 end
 begin
     id 9 
     name rfoot
     direction -0.0783088 -0.215152 0.973436   
     length 1.98785  
     axis -90 -7.62852e-016 -20   XYZ
    dof rx rz
    limits (-45.0 90.0)
           (-20.0 70.0)
  end
  begin
     id 10 
     name rtoes
     direction -1.53606e-011 -4.21943e-011 1   
     length 1.001   
     axis -90 -7.62852e-016 -20   XYZ
    dof rx
    limits (-90.0 20.0)
  end
  begin
     id 11 
     name lowerback
     direction 0.00141527 0.998403 -0.0564763   
     length 2.30486   
     axis 0 0 0   XYZ
    dof rx ry rz
    limits (-20.0 45.0)
           (-30.0 30.0)
           (-30.0 30.0)
  end
  begin
     id 12 
     name upperback
     direction 0.0125137 0.999915 0.00361315   
     length 2.30697   
     axis 0 0 0   XYZ
    dof rx ry rz
    limits (-20.0 45.0)
           (-30.0 30.0)
           (-30.0 30.0)
  end
  begin
     id 13 
     name thorax
     direction 0.0136417 0.999471 0.0295116   
     length 2.31005   
     axis 0 0 0   XYZ
    dof rx ry rz
    limits (-20.0 45.0)
           (-30.0 30.0)
           (-30.0 30.0)
  end
  begin
     id 14 
     name lowerneck
     direction 0.0766806 0.997047 0.00422047   
     length 1.68825   
     axis 0 0 0   XYZ
    dof rx ry rz
    limits (-20.0 45.0)
           (-30.0 30.0)
           (-30.0 30.0)
  end
  begin
     id 15 
     name upperneck
     direction -0.143512 0.985106 -0.0947088   
     length 1.69772   
     axis 0 0 0   XYZ
    dof rx ry rz
    limits (-20.0 45.0)
           (-30.0 30.0)
           (-30.0 30.0)
  end
  begin
     id 16
     name head
     direction -0.0539128 0.997849 -0.0372864  
     length 1.71187  
     axis 0 0 0   XYZ
    dof rx ry rz
    limits (-20.0 45.0)
           (-30.0 30.0)
           (-30.0 30.0)
  end
  begin
     id 17 
     name lclavicle
     direction 0.978251 0.207416 -0.00165765  
     length 3.35399  
     axis 0 0 0   XYZ
    dof ry rz
    limits (-20.0 10.0)
           (0.0 20.0)
  end
  begin
     id 18 
     name lhumerus
     direction 1 -4.48966e-011 -1.32191e-028   
     length 5.70706   
     axis 180 -30 -90   XYZ
    dof rx ry rz
    limits (-60.0 90.0)
           (-90.0 90.0)
           (-90.0 90.0)
  end
  begin
     id 19
     name lradius
     direction 1 -4.48976e-011 9.36106e-027   
     length 3.33243   
     axis 180 -30 -90   XYZ
    dof rx
    limits (-10.0 170.0)
  end
  begin
     id 20
     name lwrist
     direction 1 -4.48976e-011 1.1555e-026   
     length 1.66621   
     axis -5.7412e-015 90 90   XYZ
    dof ry
    limits (-180.0 0.0)
 end
  begin
     id 21 
     name lhand
     direction 1 -4.48939e-011 2.31113e-026   
     length 0.792687   
     axis -1.47463e-014 90 90   XYZ
    dof rx rz
    limits (-90.0 90.0)
           (-45.0 45.0)
  end
  begin
     id 22 
     name lfingers
     direction 1 -4.48866e-011 4.62274e-026   
     length 0.639085   
     axis -2.94925e-014 90 90   XYZ
    dof rx
    limits (0.0 90.0)
  end
  begin
     id 23
     name lthumb
     direction 0.707107 -6.34847e-011 0.707107   
     length 0.917601   
     axis -90 45 -6.68868e-015   XYZ
    dof rx rz
    limits (-45.0 45.0)
           (-45.0 45.0)
  end
  begin
     id 24 
     name rclavicle
     direction -0.981813 0.185514 0.0403428   
     length 3.47271  
     axis 0 0 0   XYZ 
    dof ry rz
    limits (-10.0 20.0)
           (-20.0 0.0)
  end
  begin
     id 25 
     name rhumerus
     direction -1 -4.48972e-011 -6.58544e-029  
     length 5.88176   
     axis 180 30 90   XYZ
    dof rx ry rz
    limits (-90.0 60.0)
           (-90.0 90.0)
           (-90.0 90.0)
  end
  begin
     id 26 
     name rradius
     direction -1 -4.48964e-011 8.36306e-027   
     length 3.28156   
     axis 180 30 90   XYZ
    dof rx
    limits (-10.0 170.0)
  end
  begin
     id 27 
     name rwrist
     direction -1 -4.48903e-011 1.15562e-026   
     length 1.64078   
     axis -5.7412e-015 -90 -90   XYZ
    dof ry
    limits (-180.0 0.0)
  end
  begin
     id 28
     name rhand
     direction -1 -4.49055e-011 2.31074e-026   
     length 0.863125   
     axis -1.47463e-014 -90 -90   XYZ
    dof rx rz
    limits (-90.0 90.0)
           (-45.0 45.0)
  end
  begin
     id 29
     name rfingers
     direction -1 -4.48994e-011 4.62188e-026   
     length 0.695873   
     axis -2.94925e-014 -90 -90   XYZ
    dof rx
    limits (0.0 90.0)
  end
  begin
     id 30
     name rthumb
     direction -0.707107 -6.35058e-011 0.707107   
     length 0.999139   
     axis -90 -45 6.68868e-015   XYZ
    dof rx rz
    limits (-45.0 45.0)
           (-45.0 45.0)
  end
:hierarchy
  begin
    root lhipjoint rhipjoint lowerback
    lhipjoint lfemur
    lfemur ltibia
    ltibia lfoot
    lfoot ltoes
    rhipjoint rfemur
    rfemur rtibia
    rtibia rfoot
    rfoot rtoes
    lowerback upperback
    upperback thorax
    thorax lowerneck lclavicle rclavicle
    lowerneck upperneck
    upperneck head
    lclavicle lhumerus
    lhumerus lradius
    lradius lwrist
    lwrist lhand lthumb
    lhand lfingers
    rclavicle rhumerus
    rhumerus rradius
    rradius rwrist
    rwrist rhand rthumb
    rhand rfingers
  end

#!OML:ASF \\Waltz\H\Terrain\Patient Classification 1\Animal2\Wednesday\Animal2.ASF
:FULLY-SPECIFIED
:DEGREES
1976
root -1.7395 16.9139 13.0677 0.075857 -7.58187 -7.30895
lowerback 7.2598 -3.62988 1.18465
upperback -0.564553 -4.65202 1.87873
thorax -4.58763 -2.31152 1.79987
lowerneck -5.23489 -11.1324 6.43196
upperneck 5.93636 -15.1124 -4.38104
head 1.93512 -7.53468 -2.87356
rclavicle 4.16423e-014 2.3059e-014
rhumerus 34.8975 51.2661 -38.2385
rradius 99.5436
rwrist -18.9778
rhand -18.5681 20.3055
rfingers 7.12502
rthumb 7.72202 -9.53347
lclavicle 4.16423e-014 2.3059e-014
lhumerus 26.6621 18.7923 11.3088
lradius 80.1352
lwrist -4.30519
lhand -50.9195 23.7674
lfingers 7.12502
lthumb -23.4714 52.3556
rfemur -8.67375 14.7547 6.7491
rtibia 37.1191
rfoot -9.43977 -7.28811
rtoes 8.06901
lfemur -17.8478 0.466545 -11.1444
ltibia 50.3421
lfoot -29.4311 -4.02836
ltoes -9.80409
1977
root -1.79639 16.9161 13.078 0.137203 -7.68808 -8.07108
lowerback 7.16872 -3.54085 1.36607
upperback -0.493338 -4.50802 2.20642
thorax -4.45257 -2.24237 2.01208
lowerneck -5.0181 -11.2144 6.7263
upperneck 5.6 -15.2188 -4.6031
head 1.73955 -7.59347 -2.95243
rclavicle -2.43201e-015 -2.8625e-014
rhumerus 35.1163 51.1845 -37.7651
rradius 99.29
rwrist -18.9522
rhand -18.7725 21.1608
rfingers 7.12502
rthumb 7.52479 -8.68534
lclavicle -2.43201e-015 -2.8625e-014
lhumerus 26.8284 18.8326 11.3318
lradius 80.1419
lwrist -4.43906
lhand -51.3589 23.4784
lfingers 7.12502
lthumb -23.8928 52.0121
rfemur -7.63588 14.2594 7.29765
rtibia 35.2246
rfoot -9.05278 -5.72366
rtoes 2.27258
lfemur -17.8355 0.193055 -10.1532
ltibia 50.7011
lfoot -29.8558 -2.47102
ltoes -13.9005
1978
root -1.85596 16.9189 13.0813 0.335868 -7.64929 -9.25522
lowerback 7.17412 -3.55371 1.95376
upperback -0.537854 -4.45564 2.63528
thorax -4.51461 -2.22581 2.12736
lowerneck -4.90589 -11.2758 6.77332
upperneck 5.60864 -15.2988 -4.57008
head 1.71677 -7.6308 -2.9403
rclavicle -5.28286e-014 -5.96354e-015
rhumerus 35.3001 51.2427 -37.4014
rradius 99.1281
rwrist -18.7847
rhand -18.4185 20.8747
rfingers 7.12502
rthumb 7.86639 -8.95896
lclavicle -5.28286e-014 -5.96354e-015
lhumerus 26.8446 18.8218 11.2307
lradius 80.2416
lwrist -4.22991
lhand -51.6932 22.4257
lfingers 7.12502
lthumb -24.2134 50.9171
rfemur -6.71089 13.5908 8.38531
rtibia 33.3759
rfoot -8.89591 -4.2614
rtoes -1.71884
lfemur -18.0711 -0.110783 -8.60714
ltibia 51.0401
lfoot -29.8461 -2.3908
ltoes -12.926
1979
root -1.91374 16.9251 13.0953 0.371373 -7.60472 -10.123
lowerback 7.03861 -3.58622 2.24136
upperback -0.432159 -4.47159 2.94015
thorax -4.32606 -2.23857 2.27019
lowerneck -4.77023 -11.3259 6.69048
upperneck 5.59063 -15.3653 -4.29662
head 1.71119 -7.65661 -2.82952
rclavicle 3.01252e-014 -2.54444e-014
rhumerus 35.4693 51.2011 -37.1747
rradius 99.0833
rwrist -18.3809
rhand -18.1411 20.2008
rfingers 7.12502
rthumb 8.13415 -9.62268
lclavicle 3.01252e-014 -2.54444e-014
lhumerus 26.8386 18.987 10.9727
lradius 80.4515
lwrist -3.92781
lhand -50.962 22.8623
lfingers 7.12502
lthumb -23.5122 51.4453
rfemur -5.68099 12.636 9.13874
rtibia 31.5827
rfoot -8.96059 -2.5835
rtoes -2.60721
lfemur -18.0472 -0.585023 -7.45933
ltibia 51.3219
lfoot -29.8585 -2.17405
ltoes -12.9461
1980
root -1.97406 16.9284 13.1107 0.345955 -7.65634 -10.841
lowerback 7.01668 -3.55155 2.3202
upperback -0.381596 -4.4099 3.26203
thorax -4.24311 -2.20762 2.54925
lowerneck -4.71382 -11.4103 6.77953
upperneck 5.68976 -15.4736 -4.43089
head 1.70971 -7.71142 -2.88547
rclavicle 5.09013e-014 -7.95139e-016
rhumerus 35.4102 51.1815 -36.9698
rradius 99.0693
rwrist -18.1386
rhand -18.1728 20.1326
rfingers 7.12502
rthumb 8.10356 -9.69205
lclavicle 5.09013e-014 -7.95139e-016
lhumerus 26.8802 19.0075 10.8262
lradius 80.5394
lwrist -3.80911
lhand -50.7038 23.347
lfingers 7.12502
lthumb -23.2644 51.9615
rfemur -4.72562 11.4334 9.7376
rtibia 29.9053
rfoot -8.90972 -0.73345
rtoes -1.60077
lfemur -17.8886 -1.02025 -6.4978
ltibia 51.5858
lfoot -30.1168 -1.35839
ltoes -14.9033
1981
root -2.03533 16.9359 13.118 0.504739 -7.67349 -11.8262
lowerback 7.04996 -3.52788 2.67601
upperback -0.44201 -4.32936 3.67091
thorax -4.32222 -2.17209 2.77381
lowerneck -4.78737 -11.4838 6.88189
upperneck 5.8457 -15.5718 -4.65108
head 1.74219 -7.76352 -2.98429
rclavicle 2.86522e-014 -1.70955e-014
rhumerus 35.3991 51.1956 -36.6738
rradius 98.9693
rwrist -18.0091
rhand -18.1628 20.344
rfingers 7.12502
rthumb 8.11324 -9.48029
lclavicle 2.86522e-014 -1.70955e-014
lhumerus 26.883 18.948 10.7126
lradius 80.5097
lwrist -3.92504
lhand -51.3187 22.7582
lfingers 7.12502
lthumb -23.8542 51.297
rfemur -4.03398 9.96437 10.6485
rtibia 28.4186
rfoot -8.71819 1.09279
rtoes -1.04657
lfemur -17.9492 -1.43262 -5.21572
ltibia 51.842
lfoot -30.3411 -0.241084
ltoes -17.684
1982
root -2.09605 16.9453 13.1221 0.585401 -7.6112 -12.7493
lowerback 7.13576 -3.54252 2.94953
upperback -0.459399 -4.30521 4.08173
thorax -4.37861 -2.16294 3.05467
lowerneck -4.62199 -11.5312 6.82216
upperneck 5.72918 -15.6199 -4.66683
head 1.6749 -7.79023 -2.95953
rclavicle -2.49339e-014 4.29375e-014
rhumerus 35.6148 51.2179 -36.2353
rradius 98.8118
rwrist -17.9697
rhand -17.8757 20.5601
rfingers 7.12502
rthumb 8.39029 -9.25321
lclavicle -2.49339e-014 4.29375e-014
lhumerus 26.7916 19.0127 10.5689
lradius 80.5262
lwrist -4.01867
lhand -51.0799 22.7584
lfingers 7.12502
lthumb -23.6252 51.3269
rfemur -3.34875 8.38426 11.5579
rtibia 27.1642
rfoot -8.20086 2.80489
rtoes -0.355953
lfemur -17.9673 -1.9482 -3.99265
ltibia 52.1005
lfoot -30.4336 0.601386
ltoes -19.9707
1983
root -2.15888 16.9469 13.121 0.671861 -7.47712 -13.6863
lowerback 7.18301 -3.54056 3.23299
upperback -0.440105 -4.26102 4.50721
thorax -4.37547 -2.14424 3.33936
lowerneck -4.36702 -11.6104 6.75804
upperneck 5.44387 -15.7091 -4.60574
head 1.54103 -7.83699 -2.89312
rclavicle 4.86557e-014 1.98785e-015
rhumerus 35.8295 51.1133 -35.7752
rradius 98.6887
rwrist -18.1552
rhand -17.8504 20.4697
rfingers 7.12502
rthumb 8.41472 -9.34263
lclavicle 4.86557e-014 1.98785e-015
lhumerus 26.8506 19.08 10.5222
lradius 80.4474
lwrist -4.01209
lhand -50.4279 23.3116
lfingers 7.12502
lthumb -22.9998 51.9594
rfemur -2.71953 6.80423 12.5536
rtibia 26.0741
rfoot -7.52881 4.23267
rtoes 0.195647
lfemur -18.0872 -2.52391 -2.70508
ltibia 52.3972
lfoot -30.411 0.679757
ltoes -19.9945
1984
root -2.21999 16.9509 13.1186 0.937797 -7.25331 -14.7568
lowerback 7.06212 -3.53757 3.7644
upperback -0.452617 -4.20459 4.90574
thorax -4.3319 -2.12531 3.44717
lowerneck -4.35616 -11.6775 6.71486
upperneck 5.3845 -15.8051 -4.40467
head 1.53408 -7.88056 -2.81895
rclavicle -6.08086e-014 3.85642e-014
rhumerus 35.966 50.9136 -35.2802
rradius 98.6021
rwrist -18.223
rhand -18.461 20.3749
rfingers 7.12502
rthumb 7.82543 -9.46029
lclavicle -6.08086e-014 3.85642e-014
lhumerus 27.1307 19.1033 10.5145
lradius 80.2876
lwrist -4.07094
lhand -49.9581 24.1496
lfingers 7.12502
lthumb -22.5489 52.8529
rfemur -2.27926 5.01095 13.6886
rtibia 25.0784
rfoot -6.9441 5.42678
rtoes -1.10096
lfemur -18.4184 -3.24252 -1.276
ltibia 52.655
lfoot -30.2453 0.790654
ltoes -19.8822
1985
root -2.27871 16.9635 13.1163 1.23261 -7.00929 -15.9364
lowerback 6.9973 -3.57204 4.37936
upperback -0.525416 -4.18326 5.34143
thorax -4.38545 -2.12547 3.56056
lowerneck -4.32718 -11.707 6.56589
upperneck 5.44217 -15.8464 -4.13558
head 1.57953 -7.89491 -2.71339
rclavicle -1.85219e-014 -3.93594e-014
rhumerus 36.0916 50.8263 -34.7137
rradius 98.5738
rwrist -18.2184
rhand -18.554 20.2142
rfingers 7.12502
rthumb 7.7356 -9.62427
lclavicle -1.85219e-014 -3.93594e-014
lhumerus 27.3424 19.0978 10.4992
lradius 80.2241
lwrist -4.18451
lhand -49.6825 25.0743
lfingers 7.12502
lthumb -22.2843 53.8094
rfemur -1.91752 3.27912 14.9725
rtibia 24.131
rfoot -6.18356 6.39889
rtoes -1.99921
lfemur -18.7457 -3.95783 0.261855
ltibia 52.8451
lfoot -30.1076 1.84775
ltoes -22.4894
1986
root -2.33647 16.9918 13.1185 1.32484 -6.98043 -16.8689
lowerback 6.99462 -3.55286 4.66274
upperback -0.442692 -4.12764 5.70677
thorax -4.29289 -2.1015 3.7767
lowerneck -4.24754 -11.7712 6.61625
upperneck 5.21179 -15.9345 -4.04121
head 1.48943 -7.93851 -2.67202
rclavicle -9.53176e-014 5.40694e-014
rhumerus 36.2503 50.6131 -34.2869
rradius 98.5336
rwrist -18.0082
rhand -18.3462 19.9747
rfingers 7.12502
rthumb 7.93616 -9.85637
lclavicle -9.53176e-014 5.40694e-014
lhumerus 27.5053 19.1994 10.427
lradius 80.2105
lwrist -4.08571
lhand -49.9915 25.4979
lfingers 7.12502
lthumb -22.581 54.1972
rfemur -1.41325 2.13382 16.0546
rtibia 23.1886
rfoot -5.28993 7.24918
rtoes 0.0101944
lfemur -18.7 -4.54591 1.50314
ltibia 52.9039
lfoot -30.0455 2.59236
ltoes -24.0735
